<?xml version="1.0" encoding="UTF-8" standalone="no"?>
<!DOCTYPE svg PUBLIC "-//W3C//DTD SVG 1.1//EN" "http://www.w3.org/Graphics/SVG/1.1/DTD/svg11.dtd">
<svg width="100%" height="100%" viewBox="0 0 3334 3334" version="1.1" xmlns="http://www.w3.org/2000/svg" xmlns:xlink="http://www.w3.org/1999/xlink" xml:space="preserve" xmlns:serif="http://www.serif.com/" style="fill-rule:evenodd;clip-rule:evenodd;stroke-linecap:round;stroke-linejoin:round;stroke-miterlimit:1.5;">
    <path d="M1086.581,1076.242L1184.701,567.743" style="fill:none;stroke:black;stroke-width:25px;"/>
    <g transform="matrix(0.558585,0.829447,-0.829447,0.558585,2184.566453,-621.48361)">
        <path d="M1086.581,1076.242L1184.701,567.743" style="fill:none;stroke:black;stroke-width:25px;"/>
    </g>
    <g transform="matrix(-0.507256,0.861795,-0.861795,-0.507256,3973.091102,1092.276377)">
        <path d="M1086.581,1076.242L1184.701,567.743" style="fill:none;stroke:black;stroke-width:25px;"/>
    </g>
    <g transform="matrix(-0.999276,0.038054,-0.038054,-0.999276,3354.080025,3298.443455)">
        <path d="M1086.581,1076.242L1184.701,567.743" style="fill:none;stroke:black;stroke-width:25px;"/>
    </g>
    <g transform="matrix(-0.507227,-0.861813,0.861813,-0.507227,1042.63044,3954.089537)">
        <path d="M1086.581,1076.242L1184.701,567.743" style="fill:none;stroke:black;stroke-width:25px;"/>
    </g>
    <g transform="matrix(0.49632,-0.868139,0.868139,0.49632,-615.889613,2275.931929)">
        <path d="M1086.581,1076.242L1184.701,567.743" style="fill:none;stroke:black;stroke-width:25px;"/>
    </g>
    <g transform="matrix(1.638219,0,0,1.638219,-1948.121085,208.816555)">
        <circle cx="2206.536" cy="889.9" r="813.892" style="fill:none;stroke:black;stroke-width:8.9px;"/>
    </g>
    <g transform="matrix(0.895901,0,0,0.895901,-310.170385,869.404887)">
        <circle cx="2206.536" cy="889.9" r="813.892" style="fill:none;stroke:black;stroke-width:16.28px;"/>
    </g>
    <g transform="matrix(0.44795,0,0,0.44795,678.248141,1268.035777)">
        <circle cx="2206.536" cy="889.9" r="813.892" style="fill:none;stroke:black;stroke-width:32.56px;"/>
    </g>
    <g transform="matrix(0.127986,0,0,0.127986,1384.261374,1552.772127)">
        <circle cx="2206.536" cy="889.9" r="813.892" style="fill:none;stroke:black;stroke-width:81.39px;"/>
    </g>
    <g transform="matrix(0.076791,0,0,0.076791,1497.223491,2160.667745)">
        <circle cx="2206.536" cy="889.9" r="813.892" style="fill:none;stroke:black;stroke-width:135.65px;"/>
    </g>
    <g transform="matrix(0.076791,0,0,0.076791,1497.223491,1035.99214)">
        <circle cx="2206.536" cy="889.9" r="813.892" style="fill:none;stroke:black;stroke-width:135.65px;"/>
    </g>
    <g transform="matrix(0.076791,0,0,0.076791,1015.25742,1326.310167)">
        <circle cx="2206.536" cy="889.9" r="813.892" style="fill:none;stroke:black;stroke-width:135.65px;"/>
    </g>
    <g transform="matrix(0.076791,0,0,0.076791,1979.189562,1326.310167)">
        <circle cx="2206.536" cy="889.9" r="813.892" style="fill:none;stroke:black;stroke-width:135.65px;"/>
    </g>
    <g>
        <g transform="matrix(0.051194,0,0,0.051194,2146.674428,1032.926401)">
            <circle cx="2206.536" cy="889.9" r="813.892" style="fill:none;stroke:black;stroke-width:203.47px;"/>
        </g>
        <g transform="matrix(0.051194,0,0,0.051194,2364.320187,1143.928526)">
            <circle cx="2206.536" cy="889.9" r="813.892" style="fill:none;stroke:black;stroke-width:203.47px;"/>
        </g>
        <g transform="matrix(0.051194,0,0,0.051194,2593.137775,1170.68896)">
            <circle cx="2206.536" cy="889.9" r="813.892" style="fill:none;stroke:black;stroke-width:203.47px;"/>
        </g>
    </g>
    <g transform="matrix(0.475518,0.879706,-0.879706,0.475518,2351.272824,-620.064386)">
        <g transform="matrix(0.051194,0,0,0.051194,2146.674428,1032.926401)">
            <circle cx="2206.536" cy="889.9" r="813.892" style="fill:none;stroke:black;stroke-width:203.47px;"/>
        </g>
        <g transform="matrix(0.051194,0,0,0.051194,2364.320187,1143.928526)">
            <circle cx="2206.536" cy="889.9" r="813.892" style="fill:none;stroke:black;stroke-width:203.47px;"/>
        </g>
        <g transform="matrix(0.051194,0,0,0.051194,2593.137775,1170.68896)">
            <circle cx="2206.536" cy="889.9" r="813.892" style="fill:none;stroke:black;stroke-width:203.47px;"/>
        </g>
    </g>
    <g transform="matrix(-0.512267,0.858826,-0.858826,-0.512267,3967.370713,1087.23286)">
        <g transform="matrix(0.051194,0,0,0.051194,2146.674428,1032.926401)">
            <circle cx="2206.536" cy="889.9" r="813.892" style="fill:none;stroke:black;stroke-width:203.47px;"/>
        </g>
        <g transform="matrix(0.051194,0,0,0.051194,2364.320187,1143.928526)">
            <circle cx="2206.536" cy="889.9" r="813.892" style="fill:none;stroke:black;stroke-width:203.47px;"/>
        </g>
        <g transform="matrix(0.051194,0,0,0.051194,2593.137775,1170.68896)">
            <circle cx="2206.536" cy="889.9" r="813.892" style="fill:none;stroke:black;stroke-width:203.47px;"/>
        </g>
    </g>
    <g transform="matrix(-0.999322,-0.036828,0.036828,-0.999322,3289.711771,3422.425041)">
        <g transform="matrix(0.051194,0,0,0.051194,2146.674428,1032.926401)">
            <circle cx="2206.536" cy="889.9" r="813.892" style="fill:none;stroke:black;stroke-width:203.47px;"/>
        </g>
        <g transform="matrix(0.051194,0,0,0.051194,2364.320187,1143.928526)">
            <circle cx="2206.536" cy="889.9" r="813.892" style="fill:none;stroke:black;stroke-width:203.47px;"/>
        </g>
        <g transform="matrix(0.051194,0,0,0.051194,2593.137775,1170.68896)">
            <circle cx="2206.536" cy="889.9" r="813.892" style="fill:none;stroke:black;stroke-width:203.47px;"/>
        </g>
    </g>
    <g transform="matrix(-0.500725,-0.865606,0.865606,-0.500725,1069.442896,3953.252977)">
        <g transform="matrix(0.051194,0,0,0.051194,2146.674428,1032.926401)">
            <circle cx="2206.536" cy="889.9" r="813.892" style="fill:none;stroke:black;stroke-width:203.47px;"/>
        </g>
        <g transform="matrix(0.051194,0,0,0.051194,2364.320187,1143.928526)">
            <circle cx="2206.536" cy="889.9" r="813.892" style="fill:none;stroke:black;stroke-width:203.47px;"/>
        </g>
        <g transform="matrix(0.051194,0,0,0.051194,2593.137775,1170.68896)">
            <circle cx="2206.536" cy="889.9" r="813.892" style="fill:none;stroke:black;stroke-width:203.47px;"/>
        </g>
    </g>
    <g transform="matrix(0.487089,-0.873352,0.873352,0.487089,-589.293369,2313.048936)">
        <g transform="matrix(0.051194,0,0,0.051194,2146.674428,1032.926401)">
            <circle cx="2206.536" cy="889.9" r="813.892" style="fill:none;stroke:black;stroke-width:203.47px;"/>
        </g>
        <g transform="matrix(0.051194,0,0,0.051194,2364.320187,1143.928526)">
            <circle cx="2206.536" cy="889.9" r="813.892" style="fill:none;stroke:black;stroke-width:203.47px;"/>
        </g>
        <g transform="matrix(0.051194,0,0,0.051194,2593.137775,1170.68896)">
            <circle cx="2206.536" cy="889.9" r="813.892" style="fill:none;stroke:black;stroke-width:203.47px;"/>
        </g>
    </g>
    <g transform="matrix(0.076791,0,0,0.076791,1979.189562,1867.583355)">
        <circle cx="2206.536" cy="889.9" r="813.892" style="fill:none;stroke:black;stroke-width:135.65px;"/>
    </g>
    <g transform="matrix(0.076791,0,0,0.076791,1015.25742,1867.583355)">
        <circle cx="2206.536" cy="889.9" r="813.892" style="fill:none;stroke:black;stroke-width:135.65px;"/>
    </g>
</svg>
