<svg width="720" height="720" viewBox="0 0 720 720" fill="none" xmlns="http://www.w3.org/2000/svg">
  <defs>
    <linearGradient id="ringStroke" x1="86" y1="88" x2="634" y2="632" gradientUnits="userSpaceOnUse">
      <stop stop-color="#7BA6FF" stop-opacity="0.48"/>
      <stop offset="0.5" stop-color="#DCE7FF" stop-opacity="0.82"/>
      <stop offset="1" stop-color="#7BA6FF" stop-opacity="0.38"/>
    </linearGradient>
    <radialGradient id="hubGlow" cx="0" cy="0" r="1" gradientUnits="userSpaceOnUse" gradientTransform="translate(360 360) rotate(90) scale(280)">
      <stop stop-color="#5F8CFF" stop-opacity="0.16"/>
      <stop offset="1" stop-color="#5F8CFF" stop-opacity="0"/>
    </radialGradient>
  </defs>

  <circle cx="360" cy="360" r="280" fill="url(#hubGlow)"/>

  <g stroke="url(#ringStroke)" stroke-width="3">
    <circle cx="360" cy="360" r="276"/>
    <circle cx="360" cy="360" r="260" opacity="0.7"/>
    <circle cx="360" cy="360" r="184" opacity="0.94"/>
    <circle cx="360" cy="360" r="118" opacity="0.86"/>
    <circle cx="360" cy="360" r="74" opacity="0.8"/>
  </g>

  <g stroke="#A8C0FF" stroke-opacity="0.48" stroke-width="2.5">
    <circle cx="360" cy="192" r="22"/>
    <circle cx="520" cy="308" r="22"/>
    <circle cx="458" cy="496" r="22"/>
    <circle cx="262" cy="496" r="22"/>
    <circle cx="200" cy="308" r="22"/>
  </g>

  <g transform="translate(360 360)" stroke="#93B5FF" stroke-opacity="0.42" stroke-width="2.25">
    <rect x="-13" y="-250" width="26" height="78" rx="13"/>
    <rect x="-13" y="-250" width="26" height="78" rx="13" transform="rotate(45)"/>
    <rect x="-13" y="-250" width="26" height="78" rx="13" transform="rotate(90)"/>
    <rect x="-13" y="-250" width="26" height="78" rx="13" transform="rotate(135)"/>
    <rect x="-13" y="-250" width="26" height="78" rx="13" transform="rotate(180)"/>
    <rect x="-13" y="-250" width="26" height="78" rx="13" transform="rotate(225)"/>
    <rect x="-13" y="-250" width="26" height="78" rx="13" transform="rotate(270)"/>
    <rect x="-13" y="-250" width="26" height="78" rx="13" transform="rotate(315)"/>
  </g>
</svg>
