<svg width="900" height="900" viewBox="0 0 900 900" fill="none" xmlns="http://www.w3.org/2000/svg">
  <defs>
    <radialGradient id="discFill" cx="0" cy="0" r="1" gradientUnits="userSpaceOnUse" gradientTransform="translate(450 450) rotate(90) scale(360)">
      <stop stop-color="#19325E" stop-opacity="0.18"/>
      <stop offset="0.58" stop-color="#0B1731" stop-opacity="0.28"/>
      <stop offset="1" stop-color="#071126" stop-opacity="0.4"/>
    </radialGradient>
    <linearGradient id="edgeStroke" x1="142" y1="138" x2="758" y2="762" gradientUnits="userSpaceOnUse">
      <stop stop-color="#8DAFFF" stop-opacity="0.28"/>
      <stop offset="0.5" stop-color="#D9E5FF" stop-opacity="0.78"/>
      <stop offset="1" stop-color="#8DAFFF" stop-opacity="0.22"/>
    </linearGradient>
    <radialGradient id="hatFill" cx="0" cy="0" r="1" gradientUnits="userSpaceOnUse" gradientTransform="translate(450 450) rotate(90) scale(150)">
      <stop stop-color="#12254A" stop-opacity="0.24"/>
      <stop offset="1" stop-color="#071126" stop-opacity="0.38"/>
    </radialGradient>
  </defs>

  <g transform="translate(450 450)">
    <circle r="336" fill="url(#discFill)"/>
    <circle r="336" stroke="url(#edgeStroke)" stroke-width="6" opacity="0.54"/>
    <circle r="304" stroke="url(#edgeStroke)" stroke-width="3" opacity="0.44"/>
    <circle r="284" stroke="url(#edgeStroke)" stroke-width="3" opacity="0.34"/>
    <circle r="218" stroke="url(#edgeStroke)" stroke-width="4" opacity="0.56"/>
    <circle r="142" fill="url(#hatFill)" stroke="url(#edgeStroke)" stroke-width="3" opacity="0.9"/>
    <circle r="56" fill="#081329" fill-opacity="0.6" stroke="url(#edgeStroke)" stroke-width="3" opacity="0.9"/>

    <g fill="#071126" fill-opacity="0.84" stroke="#C2D4FF" stroke-opacity="0.56" stroke-width="2.2">
      <circle cx="0" cy="-266" r="8"/>
      <circle cx="0" cy="-266" r="8" transform="rotate(20)"/>
      <circle cx="0" cy="-266" r="8" transform="rotate(40)"/>
      <circle cx="0" cy="-266" r="8" transform="rotate(60)"/>
      <circle cx="0" cy="-266" r="8" transform="rotate(80)"/>
      <circle cx="0" cy="-266" r="8" transform="rotate(100)"/>
      <circle cx="0" cy="-266" r="8" transform="rotate(120)"/>
      <circle cx="0" cy="-266" r="8" transform="rotate(140)"/>
      <circle cx="0" cy="-266" r="8" transform="rotate(160)"/>
      <circle cx="0" cy="-266" r="8" transform="rotate(180)"/>
      <circle cx="0" cy="-266" r="8" transform="rotate(200)"/>
      <circle cx="0" cy="-266" r="8" transform="rotate(220)"/>
      <circle cx="0" cy="-266" r="8" transform="rotate(240)"/>
      <circle cx="0" cy="-266" r="8" transform="rotate(260)"/>
      <circle cx="0" cy="-266" r="8" transform="rotate(280)"/>
      <circle cx="0" cy="-266" r="8" transform="rotate(300)"/>
      <circle cx="0" cy="-266" r="8" transform="rotate(320)"/>
      <circle cx="0" cy="-266" r="8" transform="rotate(340)"/>
    </g>

    <g fill="#071126" fill-opacity="0.82" stroke="#C2D4FF" stroke-opacity="0.52" stroke-width="1.9">
      <circle cx="0" cy="-228" r="6.5" transform="rotate(10)"/>
      <circle cx="0" cy="-228" r="6.5" transform="rotate(30)"/>
      <circle cx="0" cy="-228" r="6.5" transform="rotate(50)"/>
      <circle cx="0" cy="-228" r="6.5" transform="rotate(70)"/>
      <circle cx="0" cy="-228" r="6.5" transform="rotate(90)"/>
      <circle cx="0" cy="-228" r="6.5" transform="rotate(110)"/>
      <circle cx="0" cy="-228" r="6.5" transform="rotate(130)"/>
      <circle cx="0" cy="-228" r="6.5" transform="rotate(150)"/>
      <circle cx="0" cy="-228" r="6.5" transform="rotate(170)"/>
      <circle cx="0" cy="-228" r="6.5" transform="rotate(190)"/>
      <circle cx="0" cy="-228" r="6.5" transform="rotate(210)"/>
      <circle cx="0" cy="-228" r="6.5" transform="rotate(230)"/>
      <circle cx="0" cy="-228" r="6.5" transform="rotate(250)"/>
      <circle cx="0" cy="-228" r="6.5" transform="rotate(270)"/>
      <circle cx="0" cy="-228" r="6.5" transform="rotate(290)"/>
      <circle cx="0" cy="-228" r="6.5" transform="rotate(310)"/>
      <circle cx="0" cy="-228" r="6.5" transform="rotate(330)"/>
      <circle cx="0" cy="-228" r="6.5" transform="rotate(350)"/>
    </g>

    <g fill="#0A1731" fill-opacity="0.88" stroke="#D6E2FF" stroke-opacity="0.72" stroke-width="2.5">
      <circle cx="0" cy="-98" r="18"/>
      <circle cx="0" cy="-98" r="18" transform="rotate(72)"/>
      <circle cx="0" cy="-98" r="18" transform="rotate(144)"/>
      <circle cx="0" cy="-98" r="18" transform="rotate(216)"/>
      <circle cx="0" cy="-98" r="18" transform="rotate(288)"/>
    </g>
  </g>
</svg>
