<?xml version="1.0" encoding="UTF-8" standalone="no"?>
<!DOCTYPE svg PUBLIC "-//W3C//DTD SVG 1.1//EN" "http://www.w3.org/Graphics/SVG/1.1/DTD/svg11.dtd">
<svg width="100%" height="100%" viewBox="0 0 3334 3334" version="1.1" xmlns="http://www.w3.org/2000/svg" xmlns:xlink="http://www.w3.org/1999/xlink" xml:space="preserve" xmlns:serif="http://www.serif.com/" style="fill-rule:evenodd;clip-rule:evenodd;stroke-linecap:round;stroke-linejoin:round;stroke-miterlimit:1.5;">
    <g transform="matrix(1.791802,0,0,1.791802,-2287.007436,72.143108)">
        <circle cx="2206.536" cy="889.9" r="813.892" style="fill:none;stroke:black;stroke-width:5.81px;"/>
    </g>
    <g transform="matrix(0.895901,0,0,0.895901,-310.170385,869.404887)">
        <circle cx="2206.536" cy="889.9" r="813.892" style="fill:none;stroke:black;stroke-width:16.28px;"/>
    </g>
    <g transform="matrix(0.255972,0,0,0.255972,1101.856081,1438.877587)">
        <circle cx="2206.536" cy="889.9" r="813.892" style="fill:none;stroke:black;stroke-width:40.69px;"/>
    </g>
    <g transform="matrix(0.063993,0,0,0.063993,1982.493415,1505.55273)">
        <circle cx="2206.536" cy="889.9" r="813.892" style="fill:none;stroke:black;stroke-width:162.78px;"/>
    </g>
    <g transform="matrix(0.063993,0,0,0.063993,1798.553688,1990.703118)">
        <circle cx="2206.536" cy="889.9" r="813.892" style="fill:none;stroke:black;stroke-width:162.78px;"/>
    </g>
    <g transform="matrix(0.063993,0,0,0.063993,1068.434625,1505.55273)">
        <circle cx="2206.536" cy="889.9" r="813.892" style="fill:none;stroke:black;stroke-width:162.78px;"/>
    </g>
    <g transform="matrix(0.063993,0,0,0.063993,1525.46402,1140.969397)">
        <circle cx="2206.536" cy="889.9" r="813.892" style="fill:none;stroke:black;stroke-width:162.78px;"/>
    </g>
    <g transform="matrix(0.063993,0,0,0.063993,1252.374353,1990.703118)">
        <circle cx="2206.536" cy="889.9" r="813.892" style="fill:none;stroke:black;stroke-width:162.78px;"/>
    </g>
</svg>
